<svg version="1.1" xmlns="http://www.w3.org/2000/svg" viewBox="-316.49710308796523 -39.07550517135672 848.2526337987634 70.6591372468779" fill="none" stroke="black" stroke-width="0.6%" vector-effect="non-scaling-stroke">
    <path d="M 430.51686 -23.09176 L 271.2902 -17.21085 L 271.2902 20.86466 L 371.52887 24.35337 L 371.52887 -13.72213 L 271.2902 -17.21085" />
    <path d="M 530.75553 18.47246 L 371.52887 24.35337" />
    <path d="M 530.75553 -19.60304 L 371.52887 -13.72213" />
    <path d="M 530.75553 18.47246 L 530.75553 -19.60304 L 430.51686 -23.09176" />
    <path d="M 0 -38.0755 L -176.91851 -31.54116 L -176.91851 -16.09888" />
    <path d="M 100.23867 -34.58679 L -76.67984 -28.05244 L -176.91851 -31.54116" />
    <path d="M 100.23867 -26.33547 L 100.23867 -34.58679 L 0 -38.0755" />
    <path d="M -76.67984 -19.80112 L -76.67984 -28.05244" />
    <path d="M 215.25843 -30.58363 L -315.4971 -10.98059 L -315.4971 27.09492 L -215.25843 30.58363 L -215.25843 -7.49187 L -315.4971 -10.98059" />
    <path d="M 271.2902 12.61334 L -215.25843 30.58363" />
    <path d="M 315.4971 -27.09492 L -215.25843 -7.49187" />
    <path d="M 315.4971 -18.84359 L 315.4971 -27.09492 L 215.25843 -30.58363" />
</svg>