<svg version="1.1" xmlns="http://www.w3.org/2000/svg" viewBox="-1501.000001 -9.57079767540506 3002.000002 19.14159535081012" fill="none" stroke="black" stroke-width="0.6%" vector-effect="non-scaling-stroke">
    <path d="M 1500 4.99999 A 1500 3.57081 360 0 1 1060.64261 7.52497 A 1500 3.57081 360 0 1 -1500 4.99999" />
    <path d="M -1060.64261 -7.52497 A 1500 3.57081 360 0 1 1500 -4.99999 A 1500 3.57081 360 0 1 1060.64261 -2.475 A 1500 3.57081 360 0 1 -1500 -4.99999 A 1500 3.57081 360 0 1 -1060.64261 -7.52497 Z" />
    <path d="M 828.00833 -3.02881 A 1171 2.78761 360 0 1 -1171 -4.99999 A 1171 2.78761 360 0 1 -828.00833 -6.97116 A 1171 2.78761 360 0 1 1171 -4.99999 A 1171 2.78761 360 0 1 828.00833 -3.02881 Z" />
    <path d="M 1500 -4.99999 L 1500 4.99999" />
    <path d="M -1500 -4.99999 L -1500 4.99999" />
</svg>