<svg version="1.1" xmlns="http://www.w3.org/2000/svg" viewBox="-16.000000999999997 -9.327089637154701 32.000001999999995 18.654179274309403" fill="none" stroke="black" stroke-width="0.6%" vector-effect="non-scaling-stroke">
    <path d="M 15 4.865 A 15 3.46209 360 0 1 10.6066 7.31307 A 15 3.46209 360 0 1 -15 4.865" />
    <path d="M -10.6066 -7.31307 A 15 3.46209 360 0 1 15 -4.865 A 15 3.46209 360 0 1 10.6066 -2.41693 A 15 3.46209 360 0 1 -15 -4.865 A 15 3.46209 360 0 1 -10.6066 -7.31307 Z" />
    <path d="M 7.07107 -3.23295 A 10 2.30806 360 0 1 -10 -4.865 A 10 2.30806 360 0 1 -7.07107 -6.49704 A 10 2.30806 360 0 1 10 -4.865 A 10 2.30806 360 0 1 7.07107 -3.23295 Z" />
    <path d="M 15 -4.865 L 15 4.865" />
    <path d="M -15 -4.865 L -15 4.865" />
</svg>