<svg version="1.1" xmlns="http://www.w3.org/2000/svg" viewBox="-1775.1910970590277 -243.86868191375402 3283.814059611406 508.0869463088838" fill="none" stroke="black" stroke-width="0.6%" vector-effect="non-scaling-stroke">
    <path d="M 587.36652 120.86177 L 1076.07477 142.68869 L 1076.07477 180.66487 L 1143.81586 170.82318 L 1143.81586 132.84699 L 1076.07477 142.68869" />
    <path d="M 600.0273 159.40342 L 1076.07477 180.66487" />
    <path d="M 587.36652 120.86177 L 587.36652 144.83691" />
    <path d="M 655.10762 111.02007 L 1143.81586 132.84699" />
    <path d="M 655.10762 111.02007 L 587.36652 120.86177" />
    <path d="M 43.57796 133.41714 L 532.28621 155.24406 L 532.28621 193.22025 L 600.0273 183.37856 L 600.0273 145.40237 L 532.28621 155.24406" />
    <path d="M 43.57796 171.39333 L 532.28621 193.22025" />
    <path d="M 43.57796 133.41714 L 43.57796 171.39333" />
    <path d="M 111.31906 123.57545 L 600.0273 145.40237" />
    <path d="M 111.31906 123.57545 L 43.57796 133.41714" />
    <path d="M -935.27 -151.28526 L -1366.34968 -88.65629 L -1366.34968 -50.6801 L -1244.17262 -45.22337 L -1244.17262 -83.19956 L -1366.34968 -88.65629" />
    <path d="M -813.09294 -107.85234 L -1244.17262 -45.22337" />
    <path d="M -813.09294 -145.82853 L -1244.17262 -83.19956" />
    <path d="M -813.09294 -107.85234 L -813.09294 -145.82853 L -935.27 -151.28526" />
    <path d="M -1071.21714 -48.47138 L -1502.29682 14.15759 L -1502.29682 52.13378 L -1380.11976 57.5905 L -1380.11976 19.61432 L -1502.29682 14.15759" />
    <path d="M -949.04008 -5.03846 L -1380.11976 57.5905" />
    <path d="M -949.04008 -43.01465 L -1380.11976 19.61432" />
    <path d="M -949.04008 -5.03846 L -949.04008 -43.01465 L -1071.21714 -48.47138" />
    <path d="M -1343.11142 157.15638 L -1774.1911 219.78535 L -1774.1911 257.76153 L -1652.01403 263.21826 L -1652.01403 225.24208 L -1774.1911 219.78535" />
    <path d="M -1220.93436 200.58929 L -1652.01403 263.21826" />
    <path d="M -1220.93436 162.61311 L -1652.01403 225.24208" />
    <path d="M -1220.93436 200.58929 L -1220.93436 162.61311 L -1343.11142 157.15638" />
    <path d="M -1207.16428 54.3425 L -1638.24396 116.97147 L -1638.24396 154.94765 L -1516.06689 160.40438 L -1516.06689 122.4282 L -1638.24396 116.97147" />
    <path d="M -1084.98722 97.77541 L -1516.06689 160.40438" />
    <path d="M -1084.98722 59.79923 L -1516.06689 122.4282" />
    <path d="M -1084.98722 97.77541 L -1084.98722 59.79923 L -1207.16428 54.3425" />
    <path d="M 1217.74176 29.27835 L 1439.88187 39.19967 L 1439.88187 77.17586 L 1507.62296 67.33417 L 1507.62296 29.35798 L 1439.88187 39.19967" />
    <path d="M 1217.74176 67.25454 L 1439.88187 77.17586" />
    <path d="M 1217.74176 29.27835 L 1217.74176 67.25454" />
    <path d="M 1285.48285 19.43665 L 1507.62296 29.35798" />
    <path d="M 1285.48285 19.43665 L 1217.74176 29.27835" />
    <path d="M 673.9532 41.83373 L 896.09331 51.75505 L 896.09331 89.73124 L 963.8344 79.88955 L 963.8344 41.91336 L 896.09331 51.75505" />
    <path d="M 673.9532 79.80991 L 896.09331 89.73124" />
    <path d="M 673.9532 41.83373 L 673.9532 79.80991" />
    <path d="M 741.69429 31.99203 L 963.8344 41.91336" />
    <path d="M 741.69429 31.99203 L 673.9532 41.83373" />
    <path d="M -304.89476 -242.86868 L -428.06039 -224.97469 L -428.06039 -186.9985 L -305.88332 -181.54177 L -305.88332 -219.51796 L -428.06039 -224.97469" />
    <path d="M -182.7177 -199.43576 L -305.88332 -181.54177" />
    <path d="M -182.7177 -237.41195 L -305.88332 -219.51796" />
    <path d="M -182.7177 -199.43576 L -182.7177 -237.41195 L -304.89476 -242.86868" />
    <path d="M -440.8419 -140.0548 L -564.00753 -122.16081 L -564.00753 -84.18462 L -441.83046 -78.72789 L -441.83046 -116.70408 L -564.00753 -122.16081" />
    <path d="M -318.66484 -96.62188 L -441.83046 -78.72789" />
    <path d="M -318.66484 -134.59807 L -441.83046 -116.70408" />
    <path d="M -318.66484 -96.62188 L -318.66484 -134.59807 L -440.8419 -140.0548" />
    <path d="M -712.73618 65.57296 L -835.90181 83.46695 L -835.90181 121.44314 L -713.72474 126.89987 L -713.72474 88.92368 L -835.90181 83.46695" />
    <path d="M -590.55912 109.00587 L -713.72474 126.89987" />
    <path d="M -590.55912 71.02969 L -713.72474 88.92368" />
    <path d="M -590.55912 109.00587 L -590.55912 71.02969 L -712.73618 65.57296" />
    <path d="M -576.78904 -37.24092 L -699.95467 -19.34693 L -699.95467 18.62926 L -577.7776 24.08599 L -577.7776 -13.8902 L -699.95467 -19.34693" />
    <path d="M -454.61198 6.192 L -577.7776 24.08599" />
    <path d="M -454.61198 -31.78419 L -577.7776 -13.8902" />
    <path d="M -454.61198 6.192 L -454.61198 -31.78419 L -576.78904 -37.24092" />
</svg>