<svg version="1.1" xmlns="http://www.w3.org/2000/svg" viewBox="-1501.000001 -9.53586357153529 3002.000002 19.071727143070575" fill="none" stroke="black" stroke-width="0.6%" vector-effect="non-scaling-stroke">
    <path d="M 1500 4.99999 A 1500 3.53588 360 0 1 1060.66017 7.50023 A 1500 3.53588 360 0 1 -1500 4.99999" />
    <path d="M -1060.66017 -7.50023 A 1500 3.53588 360 0 1 1500 -4.99999 A 1500 3.53588 360 0 1 1060.66017 -2.49974 A 1500 3.53588 360 0 1 -1500 -4.99999 A 1500 3.53588 360 0 1 -1060.66017 -7.50023 Z" />
    <path d="M 828.02204 -3.04813 A 1171 2.76034 360 0 1 -1171 -4.99999 A 1171 2.76034 360 0 1 -828.02204 -6.95184 A 1171 2.76034 360 0 1 1171 -4.99999 A 1171 2.76034 360 0 1 828.02204 -3.04813 Z" />
    <path d="M 1500 -4.99999 L 1500 4.99999" />
    <path d="M -1500 -4.99999 L -1500 4.99999" />
</svg>