<svg version="1.1" xmlns="http://www.w3.org/2000/svg" viewBox="-133.9148969810068 -39.095211874661686 838.6883304687407 78.19042374932339" fill="none" stroke="black" stroke-width="0.6%" vector-effect="non-scaling-stroke">
    <path d="M 0 -38.09521 L -78.19705 -34.26359 L -78.19705 -3.36306" />
    <path d="M 132.9149 -37.4133 L 54.71785 -33.58169 L -78.19705 -34.26359" />
    <path d="M 132.9149 -29.15771 L 132.9149 -37.4133 L 0 -38.09521" />
    <path d="M 54.71785 -25.32609 L 54.71785 -33.58169" />
    <path d="M 570.85854 -35.16648 L -132.9149 -0.68191 L -132.9149 37.4133 L 0 38.09521 L 0 0 L -132.9149 -0.68191" />
    <path d="M 703.77343 3.61064 L 0 38.09521" />
    <path d="M 703.77343 -34.48458 L 0 0" />
    <path d="M 703.77343 3.61064 L 703.77343 -34.48458 L 570.85854 -35.16648" />
    <path d="M 285.42927 -36.63085 L 50.83812 -25.13599 L 50.83812 -9.68572" />
    <path d="M 418.34416 -35.94894 L 183.75302 -24.45408 L 50.83812 -25.13599" />
    <path d="M 418.34416 -27.69335 L 418.34416 -35.94894 L 285.42927 -36.63085" />
    <path d="M 183.75302 -16.19849 L 183.75302 -24.45408" />
</svg>